<?xml version="1.0" encoding="UTF-8" standalone="no"?>
<svg width="18px" height="24px" viewBox="0 0 18 24" version="1.1" xmlns="http://www.w3.org/2000/svg" xmlns:xlink="http://www.w3.org/1999/xlink" xmlns:sketch="http://www.bohemiancoding.com/sketch/ns">
    <!-- Generator: Sketch 3.5.2 (25235) - http://www.bohemiancoding.com/sketch -->
    <title>trash copy</title>
    <desc>Created with Sketch.</desc>
    <defs></defs>
    <g id="Page-1" stroke="none" stroke-width="1" fill="none" fill-rule="evenodd" sketch:type="MSPage">
        <g id="03-3-basket" sketch:type="MSArtboardGroup" transform="translate(-287.000000, -144.000000)" fill="#929292">
            <g id="Group" sketch:type="MSLayerGroup" transform="translate(14.000000, 144.000000)">
                <g id="Group-Copy-2" sketch:type="MSShapeGroup">
                    <path d="M286.090909,3.14754098 L291,3.14754098 L291,3.93442623 L289.621131,3.93442623 L288.169511,22.4326765 C288.1019,23.2942529 287.312963,24 286.408078,24 L277.003139,24 C276.101343,24 275.323287,23.2963731 275.272203,22.4284049 L274.183739,3.93442623 L273,3.93442623 L273,3.14754098 L277.909091,3.14754098 L277.909091,1.57761167 C277.909091,0.703396721 278.641575,0 279.54514,0 L284.45486,0 C285.357627,0 286.090909,0.706320787 286.090909,1.57761167 L286.090909,3.14754098 L286.090909,3.14754098 Z M274.955608,3.93442623 L276.132867,22.4274681 C276.160489,22.8613688 276.551241,23.2131148 277.002013,23.2131148 L286.627476,23.2131148 C287.07987,23.2131148 287.472432,22.86204 287.504398,22.4274681 L288.864699,3.93442623 L274.955608,3.93442623 L274.955608,3.93442623 Z M279.543025,0.786885246 C279.092497,0.786885246 278.727273,1.14029941 278.727273,1.57294938 L278.727273,3.14754098 L285.272727,3.14754098 L285.272727,1.57294938 C285.272727,1.1388181 284.906789,0.786885246 284.456975,0.786885246 L279.543025,0.786885246 L279.543025,0.786885246 Z M278.318182,5.50819672 L278.68235,20.4590164 L279.545455,20.4590164 L279.136364,5.50819672 L278.318182,5.50819672 L278.318182,5.50819672 Z M281.590909,5.50819672 L281.590909,20.4590164 L282.409091,20.4590164 L282.409091,5.50819672 L281.590909,5.50819672 L281.590909,5.50819672 Z M284.910154,5.50819672 L284.454545,20.4590164 L285.272727,20.4590164 L285.681818,5.50819672 L284.910154,5.50819672 L284.910154,5.50819672 Z" id="trash-copy"></path>
                </g>
            </g>
        </g>
    </g>
</svg>